<svg height="512pt" viewBox="0 0 512 512" width="512pt" xmlns="http://www.w3.org/2000/svg"><path d="m497 80.332031h-65.335938v-65.332031c0-8.285156-6.714843-15-15-15-8.28125 0-15 6.714844-15 15v65.332031h-65.328124c-8.285157 0-15 6.71875-15 15 0 8.285157 6.714843 15 15 15h65.328124v65.335938c0 8.28125 6.71875 15 15 15 8.285157 0 15-6.71875 15-15v-65.335938h65.335938c8.285156 0 15-6.714843 15-15 0-8.28125-6.714844-15-15-15zm0 0" fill="#e6293f"/><path d="m336.335938 512h-321.335938c-8.285156 0-15-6.714844-15-15 0-96.863281 78.804688-175.664062 175.664062-175.664062 96.863282 0 175.671876 78.800781 175.671876 175.664062 0 8.285156-6.71875 15-15 15zm-305.570313-30h289.800781c-7.53125-73.300781-69.640625-130.664062-144.898437-130.664062-75.257813 0-137.367188 57.363281-144.902344 130.664062zm0 0" fill="#09426d"/><path d="m175.664062 254.933594c-52.5625 0-95.328124-42.765625-95.328124-95.332032 0-52.566406 42.765624-95.335937 95.328124-95.335937 52.570313 0 95.335938 42.769531 95.335938 95.335937 0 52.566407-42.765625 95.332032-95.335938 95.332032zm0-160.667969c-36.023437 0-65.328124 29.308594-65.328124 65.335937 0 36.023438 29.304687 65.332032 65.328124 65.332032 36.027344 0 65.335938-29.308594 65.335938-65.332032 0-36.027343-29.308594-65.335937-65.335938-65.335937zm0 0" fill="#a46343"/></svg>