<svg height="512pt" viewBox="0 0 512 512" width="512pt" xmlns="http://www.w3.org/2000/svg"><path d="m336.332031 512h-321.332031c-8.285156 0-15-6.714844-15-15v-112.46875c0-97.007812 78.488281-175.664062 175.667969-175.664062 97.007812 0 175.667969 78.488281 175.667969 175.664062v112.46875c-.003907 8.285156-6.71875 15-15.003907 15zm0 0" fill="#ffece3"/><path d="m336.332031 512c8.285157 0 15-6.714844 15-15v-112.46875c0-97.175781-78.660156-175.664062-175.667969-175.664062v303.132812zm0 0" fill="#ffdccd"/><path d="m416.667969 190.667969c-52.566407 0-95.332031-42.769531-95.332031-95.335938-.003907-52.566406 42.765624-95.332031 95.332031-95.332031 52.566406 0 95.332031 42.765625 95.332031 95.332031 0 52.566407-42.765625 95.335938-95.332031 95.335938zm0 0" fill="#0051bd"/><path d="m175.667969 208.867188c-57.585938 0-104.433594-46.851563-104.433594-104.433594 0-57.585938 46.847656-104.433594 104.433594-104.433594 57.585937 0 104.433593 46.847656 104.433593 104.433594 0 57.582031-46.851562 104.433594-104.433593 104.433594zm0 0" fill="#ffece3"/><path d="m175.667969 0v208.867188c57.582031 0 104.433593-46.851563 104.433593-104.433594 0-57.585938-46.851562-104.433594-104.433593-104.433594zm0 0" fill="#ffdccd"/><path d="m416.667969 0v190.667969c52.566406 0 95.332031-42.769531 95.332031-95.335938 0-52.566406-42.765625-95.332031-95.332031-95.332031zm0 0" fill="#00347b"/><path d="m455.765625 80.332031h-24.097656v-24.097656c0-8.285156-6.71875-15-15-15-8.285157 0-15 6.714844-15 15v24.097656h-24.101563c-8.285156 0-15 6.71875-15 15 0 8.285157 6.714844 15 15 15h24.101563v24.101563c0 8.285156 6.714843 15 15 15 8.28125 0 15-6.714844 15-15v-24.101563h24.097656c8.285156 0 15-6.714843 15-15 0-8.28125-6.714844-15-15-15zm0 0" fill="#edf6ff"/><path d="m431.667969 134.433594v-24.101563h24.097656c8.285156 0 15-6.714843 15-15 0-8.28125-6.714844-15-15-15h-24.097656v-24.097656c0-8.285156-6.71875-15-15-15v108.199219c8.28125 0 15-6.714844 15-15zm0 0" fill="#d5e9ff"/><path d="m351.328125 384.53125h-80.328125v127.46875h-190.671875v-127.46875h-80.328125c0-74.992188 46.910156-139 113.089844-164.203125l51.96875 51.972656c2.929687 2.929688 6.769531 4.398438 10.613281 4.398438 3.839844 0 7.667969-1.46875 10.597656-4.398438l51.96875-51.972656c66.113281 25.183594 113.089844 89.113281 113.089844 164.203125zm0 0" fill="#ff5e91"/><path d="m351.328125 384.53125h-80.328125v127.46875h-95.328125v-235.300781c3.839844 0 7.667969-1.46875 10.597656-4.398438l51.96875-51.972656c66.113281 25.183594 113.089844 89.113281 113.089844 164.203125zm0 0" fill="#cf0050"/></svg>