<svg height="512pt" viewBox="0 0 512 512" width="512pt" xmlns="http://www.w3.org/2000/svg"><path d="m91.902344 166.898438h319.796875v328.300781h-319.796875zm0 0" fill="#ffe470"/><path d="m256 166.898438h155.699219v328.300781h-155.699219zm0 0" fill="#ffd400"/><path d="m136 451h-60c-8.289062 0-15-6.710938-15-15v-180c0-8.289062 6.710938-15 15-15h60c8.289062 0 15 6.710938 15 15v180c0 8.289062-6.710938 15-15 15zm0 0" fill="#d7e9fd"/><path d="m436 451h-60c-8.289062 0-15-6.710938-15-15v-180c0-8.289062 6.710938-15 15-15h60c8.289062 0 15 6.710938 15 15v180c0 8.289062-6.710938 15-15 15zm0 0" fill="#b4dafe"/><path d="m481 496.0625v-60.0625c0-8.289062-6.710938-15-15-15h-120c-8.289062 0-15 6.710938-15 15v60.0625zm0 0" fill="#d7e9fd"/><path d="m181 496.0625v-60.0625c0-8.289062-6.710938-15-15-15h-120c-8.289062 0-15 6.710938-15 15v60.0625zm0 0" fill="#ececf1"/><path d="m166 271h-120c-8.289062 0-15-6.710938-15-15v-60c0-8.289062 6.710938-15 15-15h120c8.289062 0 15 6.710938 15 15v60c0 8.289062-6.710938 15-15 15zm0 0" fill="#ececf1"/><path d="m466 271h-120c-8.289062 0-15-6.710938-15-15v-60c0-8.289062 6.710938-15 15-15h120c8.289062 0 15 6.710938 15 15v60c0 8.289062-6.710938 15-15 15zm0 0" fill="#d7e9fd"/><path d="m442.597656 92.5-180-91c-2.097656-.902344-4.195312-1.5-6.597656-1.5s-4.5.597656-6.597656 1.5l-180 91c-5.101563 2.699219-8.402344 7.800781-8.402344 13.5v30c0 8.398438 6.597656 15 15 15h360c8.402344 0 15-6.601562 15-15v-30c0-5.699219-3.300781-10.800781-8.402344-13.5zm0 0" fill="#ececf1"/><path d="m497 121h-482c-8.402344 0-15 6.597656-15 15v60c0 8.398438 6.597656 15 15 15h482c8.402344 0 15-6.601562 15-15v-60c0-8.402344-6.597656-15-15-15zm0 0" fill="#d7e9fd"/><path d="m451 106v30c0 8.398438-6.597656 15-15 15h-180v-151c2.402344 0 4.5.597656 6.597656 1.5l180 91c5.101563 2.699219 8.402344 7.800781 8.402344 13.5zm0 0" fill="#d7e9fd"/><path d="m512 136v60c0 8.398438-6.597656 15-15 15h-241v-90h241c8.402344 0 15 6.597656 15 15zm0 0" fill="#b4dafe"/><path d="m512 497c0 4.199219-1.800781 7.800781-4.5 10.5s-6.300781 4.5-10.5 4.5h-482c-4.199219 0-7.800781-1.800781-10.5-4.5s-4.5-6.300781-4.5-10.5 1.800781-7.800781 4.5-10.5 6.300781-4.5 10.5-4.5h482c4.199219 0 7.800781 1.800781 10.5 4.5s4.5 6.300781 4.5 10.5zm0 0" fill="#d7e9fd"/><path d="m507.5 486.5c2.699219 2.699219 4.5 6.300781 4.5 10.5s-1.800781 7.800781-4.5 10.5-6.300781 4.5-10.5 4.5h-241v-30h241c4.199219 0 7.800781 1.800781 10.5 4.5zm0 0" fill="#b4dafe"/><path d="m301 376c0 19.5-12.597656 36-30 42.300781v16.5c0 8.398438-6.597656 15-15 15s-15-6.601562-15-15v-16.800781c-9.902344-3.601562-18.601562-10.199219-24-19.5-4.199219-7.199219-1.800781-16.199219 5.398438-20.398438 7.203124-4.203124 16.5-1.800781 20.703124 5.398438 2.699219 4.5 7.5 7.5 12.898438 7.5 8.402344 0 15-6.601562 15-15 0-8.402344-6.597656-15-15-15-24.902344 0-45-20.101562-45-45 0-19.5 12.597656-36 30-42.300781v-17.101563c0-8.398437 6.597656-15 15-15s15 6.601563 15 15v17.402344c9.902344 3.601562 18.601562 10.199219 24 19.5 4.199219 7.199219 1.800781 16.199219-5.398438 20.402344-7.203124 4.199218-16.5 1.796875-20.703124-5.402344-2.699219-4.5-7.5-7.5-12.898438-7.5-8.402344 0-15 6.601562-15 15s6.597656 15 15 15c24.902344 0 45 20.097656 45 45zm0 0" fill="#ff9f00"/><g fill="#ff7816"><path d="m301 376c0 19.5-12.597656 36-30 42.300781v16.5c0 8.398438-6.597656 15-15 15v-58.800781c8.402344 0 15-6.601562 15-15 0-8.402344-6.597656-15-15-15v-30c24.902344 0 45 20.097656 45 45zm0 0"/><path d="m256 301v-59.402344c8.402344 0 15 6.601563 15 15v17.402344c9.902344 3.601562 18.601562 10.199219 24 19.5 4.199219 7.199219 1.800781 16.199219-5.398438 20.402344-7.203124 4.199218-16.5 1.796875-20.703124-5.402344-2.699219-4.5-7.5-7.5-12.898438-7.5zm0 0"/></g></svg>