<svg height="512.00008pt" viewBox="0 0 512.00008 512.00008" width="512.00008pt" xmlns="http://www.w3.org/2000/svg"><path d="m507.464844 237.949219c5.941406-5.941407 6.152344-15.492188 0-21.21875-17.402344-17.828125-17.402344-46.257813 0-63.660157 5.941406-5.941406 5.941406-15.277343 0-21.21875l-127.316406-127.316406c-5.941407-5.941406-15.277344-5.941406-21.21875 0-17.402344 17.402344-45.832032 17.402344-63.660157 0-5.726562-6.152344-15.277343-5.941406-21.21875 0l-32.464843 32.890625-21.21875 21.222657-215.832032 215.402343c-5.941406 5.941407-6.152344 15.488281 0 21.21875 17.402344 17.828125 17.402344 46.257813 0 63.660157-5.941406 5.941406-5.941406 15.277343 0 21.21875l127.316406 127.316406c6.152344 6.152344 15.488282 5.726562 21.21875 0 17.402344-17.402344 45.835938-17.402344 63.660157 0 5.730469 6.152344 15.277343 5.941406 21.21875 0l215.828125-215.40625 21.21875-21.21875zm0 0" fill="#ff9f00"/><path d="m474.996094 270.839844-21.21875 21.21875-215.828125 215.40625c-5.941407 5.941406-15.488281 6.152344-21.21875 0-17.824219-17.402344-46.257813-17.402344-63.660157 0-5.730468 5.726562-15.066406 6.152344-21.21875 0l-63.871093-63.871094 375.613281-375.613281 63.871094 63.871093c5.941406 5.941407 5.941406 15.277344 0 21.21875-17.402344 17.402344-17.402344 45.832032 0 63.660157 6.152344 5.726562 5.941406 15.277343 0 21.21875zm0 0" fill="#ff7816"/><path d="m475.0625 270.703125-21.304688 21.308594-53.117187-53.117188c-6-6-6-15.605469 0-21.308593 5.703125-6 15.304687-6 21.308594 0zm0 0" fill="#3e5959"/><path d="m379.300781 196.359375c-5.730469 5.726563-15.277343 5.941406-21.222656 0l-42.4375-42.4375c-5.941406-5.941406-5.726563-15.492187 0-21.21875 5.941406-5.941406 15.277344-5.941406 21.21875 0l42.441406 42.4375c5.941407 5.941406 5.941407 15.277344 0 21.21875zm0 0" fill="#4a696f"/><path d="m294.410156 111.359375c-6.453125 6.453125-15.726562 5.578125-21.304687 0l-52.816407-52.816406 21.304688-21.304688 52.816406 52.8125c6.003906 6.003907 6.003906 15.605469 0 21.308594zm0 0" fill="#4a696f"/><path d="m237.765625 337.464844c-12.519531 12.523437-31.613281 17.613281-50.925781 8.492187l-11.882813 11.878907c-5.726562 5.730468-15.277343 5.945312-21.21875 0-5.730469-5.726563-5.730469-15.488282 0-21.21875l11.882813-11.882813c-4.457032-9.546875-5.941406-20.367187-3.183594-30.765625 2.335938-7.851562 10.613281-12.730469 18.675781-10.609375 7.851563 2.332031 12.515625 10.394531 10.394531 18.460937-1.273437 5.089844 0 10.609376 3.820313 14.425782 5.941406 5.941406 15.488281 5.730468 21.21875 0 5.941406-5.9375 5.941406-15.277344 0-21.21875-17.613281-17.609375-17.398437-46.257813 0-63.65625 13.367187-13.367188 34.164063-15.914063 50.925781-8.488282l12.308594-12.308593c5.941406-5.941407 15.488281-5.730469 21.21875 0 5.941406 5.941406 5.941406 15.277343 0 21.21875l-12.097656 12.097656c4.457031 9.546875 5.730468 20.582031 2.972656 30.976563-2.121094 8.066406-10.183594 12.730468-18.25 10.613281-8.0625-2.125-12.941406-10.398438-10.609375-18.25 1.488281-5.304688-.210937-10.820313-4.03125-14.640625-5.515625-5.519532-15.488281-5.730469-21.21875 0-5.730469 5.730468-5.941406 15.277344 0 21.21875 17.613281 17.613281 17.613281 46.046875 0 63.65625zm0 0" fill="#ececf1"/><path d="m237.765625 337.464844c-12.519531 12.523437-31.613281 17.613281-50.925781 8.492187l-11.882813 11.878907c-5.726562 5.730468-15.277343 5.945312-21.21875 0l41.589844-41.589844c5.941406 5.941406 15.488281 5.730468 21.21875 0 5.941406-5.9375 5.941406-15.277344 0-21.21875l21.21875-21.21875c17.613281 17.613281 17.613281 46.046875 0 63.65625zm0 0" fill="#d7e9fd"/><path d="m358.078125 196.359375-21.429687-21.433594 21.21875-21.21875 21.429687 21.433594c5.941406 5.941406 5.941406 15.277344 0 21.21875-5.726563 5.726563-15.273437 5.941406-21.21875 0zm0 0" fill="#3e5959"/><path d="m263.019531 267.230469c1.484375-5.304688-.214843-10.820313-4.035156-14.640625l42.015625-42.015625c5.941406 5.941406 5.941406 15.277343 0 21.21875l-12.097656 12.097656c4.457031 9.546875 5.730468 20.582031 2.972656 30.976563-2.121094 8.066406-10.183594 12.730468-18.25 10.613281-8.0625-2.121094-12.941406-10.398438-10.605469-18.25zm0 0" fill="#d7e9fd"/></svg>