<?xml version="1.0" encoding="iso-8859-1"?>
<!-- Generator: Adobe Illustrator 19.0.0, SVG Export Plug-In . SVG Version: 6.00 Build 0)  -->
<svg version="1.1" id="Layer_1" xmlns="http://www.w3.org/2000/svg" xmlns:xlink="http://www.w3.org/1999/xlink" x="0px" y="0px"
	 viewBox="0 0 512 512" style="enable-background:new 0 0 512 512;" xml:space="preserve">
<path style="fill:#DD512A;" d="M488.727,139.636h-69.818v23.273v23.273v209.455c0,12.853-10.42,23.273-23.273,23.273h-256h-23.273
	H93.091v69.818c0,12.853,10.42,23.273,23.273,23.273h372.364C501.58,512,512,501.58,512,488.727V162.909
	C512,150.056,501.58,139.636,488.727,139.636z"/>
<path style="fill:#A78966;" d="M310.303,46.545V23.273C310.303,10.42,299.883,0,287.03,0c-12.853,0-23.273,10.42-23.273,23.273
	v23.273h23.273H310.303z"/>
<path style="fill:#806749;" d="M155.152,46.545V23.273C155.152,10.42,144.732,0,131.879,0s-23.273,10.42-23.273,23.273v23.273
	h23.273H155.152z"/>
<path style="fill:#FFE477;" d="M139.636,418.909h256c12.853,0,23.273-10.42,23.273-23.273V186.182v-23.273
	c0,12.853-10.42,23.273-23.273,23.273h-23.273h-4.655H46.545H23.273C10.42,186.182,0,175.762,0,162.909v232.727
	c0,12.853,10.42,23.273,23.273,23.273h69.818h23.273H139.636z"/>
<path style="fill:#6E76E5;" d="M23.273,186.182h23.273h321.164h4.655h23.273c12.853,0,23.273-10.42,23.273-23.273v-23.273V69.818
	c0-12.853-10.42-23.273-23.273-23.273h-85.333H287.03h-23.273H155.152h-23.273h-23.273H23.273C10.42,46.545,0,56.965,0,69.818
	v93.091C0,175.762,10.42,186.182,23.273,186.182z"/>
<path style="fill:#EEBF00;" d="M46.545,186.182H23.273C10.42,186.182,0,175.762,0,162.909v232.727
	c0,12.853,10.42,23.273,23.273,23.273h69.818h23.273h23.273h69.818V186.182H46.545z"/>
<path style="fill:#424EDE;" d="M131.879,46.545h-23.273H23.273C10.42,46.545,0,56.965,0,69.818v93.091
	c0,12.853,10.42,23.273,23.273,23.273h23.273h162.909V46.545h-54.303H131.879z"/>
<g>
</g>
<g>
</g>
<g>
</g>
<g>
</g>
<g>
</g>
<g>
</g>
<g>
</g>
<g>
</g>
<g>
</g>
<g>
</g>
<g>
</g>
<g>
</g>
<g>
</g>
<g>
</g>
<g>
</g>
</svg>
