<?xml version="1.0" encoding="iso-8859-1"?>
<!-- Generator: Adobe Illustrator 19.0.0, SVG Export Plug-In . SVG Version: 6.00 Build 0)  -->
<svg version="1.1" id="Layer_1" xmlns="http://www.w3.org/2000/svg" xmlns:xlink="http://www.w3.org/1999/xlink" x="0px" y="0px"
	 viewBox="0 0 512 512" style="enable-background:new 0 0 512 512;" xml:space="preserve">
<path style="fill:#9BC9FF;" d="M418.349,118.089c0.371-5.008,0.56-9.99,0.56-14.809V46.545h-23.273h-23.273H256H139.636h-23.273
	H93.091v56.733c0,4.819,0.189,9.801,0.56,14.809c0,0.005,0,0.008,0.002,0.011c4.04,54.454,30.12,103.93,71.503,137.922
	c-45.135,37.212-72.065,93.044-72.065,152.699v56.736h23.273h23.273H256h116.364h23.273h23.273v-56.736
	c0-59.653-26.93-115.487-72.065-152.697C388.233,222.025,414.312,172.544,418.349,118.089z"/>
<path style="fill:#FFE477;" d="M256,46.545H139.636v46.545v10.187c0,3.672,0.146,7.495,0.433,11.36
	c0.042,0.577,0.105,1.15,0.155,1.725c0.68,7.919,1.966,15.694,3.828,23.273H256h111.948c1.863-7.579,3.15-15.354,3.828-23.273
	c0.048-0.574,0.112-1.145,0.155-1.721c0.289-3.869,0.433-7.692,0.433-11.365V93.091V46.545H256z"/>
<path style="fill:#B3D8F4;" d="M294.347,276.348c-7.396-4.102-11.984-11.894-11.984-20.351s4.588-16.249,11.984-20.351
	c37.314-20.697,63.649-55.533,73.601-96.009H256H144.052c9.951,40.477,36.288,75.314,73.601,96.009
	c7.398,4.102,11.985,11.894,11.985,20.351s-4.588,16.249-11.984,20.351c-48.123,26.695-78.018,77.416-78.018,132.371v56.736H256
	h116.364v-56.736C372.364,353.764,342.469,303.043,294.347,276.348z"/>
<g>
	<path style="fill:#A78966;" d="M457.697,465.455h-38.788h-23.273h-23.273H256H139.636h-23.273H93.091H54.303
		c-12.853,0-23.273,10.42-23.273,23.273S41.45,512,54.303,512h62.061H256h139.636h62.061c12.853,0,23.273-10.42,23.273-23.273
		S470.55,465.455,457.697,465.455z"/>
	<path style="fill:#A78966;" d="M457.697,0h-62.061H256H116.364H54.303C41.45,0,31.03,10.42,31.03,23.273
		s10.42,23.273,23.273,23.273h38.788h23.273h23.273H256h116.364h23.273h23.273h38.788c12.853,0,23.273-10.42,23.273-23.273
		S470.55,0,457.697,0z"/>
</g>
<path style="fill:#E69629;" d="M93.091,103.278c0,4.819,0.189,9.801,0.56,14.809c0,0.005,0,0.008,0.002,0.011
	c-0.002-0.005-0.002-0.011-0.002-0.016C93.28,113.081,93.091,108.097,93.091,103.278z"/>
<path style="fill:#57A4FF;" d="M93.091,408.719v56.736h23.273h23.273v-56.736c0-54.953,29.895-105.674,78.016-132.371
	c7.396-4.102,11.984-11.894,11.984-20.351s-4.588-16.249-11.985-20.351c-37.312-20.696-63.648-55.532-73.599-96.009
	c-1.862-7.579-3.148-15.354-3.828-23.273c-0.048-0.576-0.112-1.148-0.155-1.725c-0.287-3.865-0.433-7.686-0.433-11.36V93.091V46.545
	h-23.273H93.091v56.733c0,4.819,0.189,9.801,0.56,14.806c0,0.005,0,0.011,0.002,0.016c4.04,54.454,30.12,103.93,71.503,137.922
	C120.021,293.232,93.091,349.065,93.091,408.719z"/>
<path style="fill:#8CB7E8;" d="M256,139.636H144.052c9.951,40.477,36.288,75.314,73.601,96.009
	c7.398,4.102,11.985,11.892,11.985,20.351c0,8.457-4.588,16.249-11.984,20.351c-48.123,26.695-78.018,77.416-78.018,132.371v56.736
	H256V139.636z"/>
<path style="fill:#EEBF00;" d="M256,46.545H139.636v46.545v10.187c0,3.672,0.146,7.495,0.433,11.36
	c0.042,0.577,0.105,1.15,0.155,1.725c0.68,7.919,1.966,15.694,3.828,23.273H256V46.545z"/>
<g>
	<path style="fill:#806749;" d="M139.636,46.545H256V0H116.364H54.303C41.45,0,31.03,10.42,31.03,23.273s10.42,23.273,23.273,23.273
		h38.788h23.273H139.636z"/>
	<path style="fill:#806749;" d="M139.636,465.455h-23.273H93.091H54.303c-12.853,0-23.273,10.42-23.273,23.273S41.45,512,54.303,512
		h62.061H256v-46.545H139.636z"/>
</g>
<g>
</g>
<g>
</g>
<g>
</g>
<g>
</g>
<g>
</g>
<g>
</g>
<g>
</g>
<g>
</g>
<g>
</g>
<g>
</g>
<g>
</g>
<g>
</g>
<g>
</g>
<g>
</g>
<g>
</g>
</svg>
