<svg height="512pt" viewBox="0 0 512 512" width="512pt" xmlns="http://www.w3.org/2000/svg"><path d="m512 91v45c0 8.398438-6.597656 15-15 15h-482c-8.402344 0-15-6.601562-15-15v-45l76-30h390zm0 0" fill="#384949"/><path d="m512 91v45c0 8.398438-6.597656 15-15 15h-241v-90h210zm0 0" fill="#293939"/><path d="m406 61h-300c-8.402344 0-15 6.597656-15 15v421c0 8.398438 6.597656 15 15 15h300c8.402344 0 15-6.601562 15-15v-421c0-8.402344-6.597656-15-15-15zm0 0" fill="#70da40"/><path d="m421 76v421c0 8.398438-6.597656 15-15 15h-150v-451h150c8.402344 0 15 6.597656 15 15zm0 0" fill="#1fbf66"/><path d="m351.097656 149.199219c-8.699218-3-15.296875-9.597657-18.296875-18.300781-2.101562-6-7.800781-9.898438-14.101562-9.898438h-125.398438c-6.300781 0-12 3.898438-14.101562 9.898438-3 8.703124-9.597657 15.300781-18.300781 18.300781-6 2.101562-9.898438 7.800781-9.898438 14.101562v246.398438c0 6.300781 3.898438 12 9.898438 14.101562 8.699218 3 15.300781 9.597657 18.300781 18.300781 2.101562 6 7.800781 9.898438 14.101562 9.898438h125.398438c6.300781 0 12-3.898438 14.101562-9.898438 3-8.699218 9.597657-15.300781 18.300781-18.300781 6-2.101562 9.898438-7.800781 9.898438-14.101562v-246.398438c0-6.300781-3.898438-12-9.902344-14.101562zm0 0" fill="#b1efaf"/><path d="m361 163.300781v246.398438c0 6.300781-3.898438 12-9.902344 14.101562-8.699218 3-15.296875 9.597657-18.296875 18.300781-2.101562 6-7.800781 9.898438-14.101562 9.898438h-62.699219v-331h62.699219c6.300781 0 12 3.898438 14.101562 9.898438 3 8.703124 9.597657 15.300781 18.300781 18.300781 6 2.101562 9.898438 7.800781 9.898438 14.101562zm0 0" fill="#91eb90"/><path d="m497 0h-482c-8.402344 0-15 6.597656-15 15v76h512v-76c0-8.402344-6.597656-15-15-15zm0 0" fill="#4a696f"/><path d="m512 15v76h-256v-91h241c8.402344 0 15 6.597656 15 15zm0 0" fill="#3e5959"/><g fill="#70da40"><path d="m256 241c-24.902344 0-45 20.097656-45 45 0 24.898438 20.097656 45 45 45s45-20.101562 45-45c0-24.902344-20.097656-45-45-45zm0 0"/><path d="m271 196c0 8.398438-6.597656 15-15 15s-15-6.601562-15-15c0-8.402344 6.597656-15 15-15s15 6.597656 15 15zm0 0"/><path d="m271 377c0 8.398438-6.597656 15-15 15s-15-6.601562-15-15c0-8.402344 6.597656-15 15-15s15 6.597656 15 15zm0 0"/></g><path d="m271 377c0 8.398438-6.597656 15-15 15v-30c8.402344 0 15 6.597656 15 15zm0 0" fill="#1fbf66"/><path d="m256 211v-30c8.402344 0 15 6.597656 15 15 0 8.398438-6.597656 15-15 15zm0 0" fill="#1fbf66"/><path d="m301 286c0 24.898438-20.097656 45-45 45v-90c24.902344 0 45 20.097656 45 45zm0 0" fill="#1fbf66"/></svg>