<svg height="512pt" viewBox="-31 0 512 512" width="512pt" xmlns="http://www.w3.org/2000/svg"><path d="m270 301v60c0 39.300781-67.800781 60-135 60s-135-20.699219-135-60v-60h30c0 8.699219 36.898438 30 105 30s105-21.300781 105-30zm0 0" fill="#fdbf00"/><path d="m240 301h30v60c0 39.300781-67.800781 60-135 60v-61.167969c0-15.535156 11.785156-28.625 27.257812-30.035156 50.632813-4.625 77.742188-21.339844 77.742188-28.796875zm0 0" fill="#ff7816"/><path d="m270 241v60c0 39.300781-67.800781 60-135 60s-135-20.699219-135-60v-60h30c0 8.699219 36.898438 30 105 30s105-21.300781 105-30zm0 0" fill="#ffd400"/><path d="m240 241h30v60c0 39.300781-67.800781 60-135 60v-90c68.101562 0 105-21.300781 105-30zm0 0" fill="#ff9f00"/><path d="m255 166c-8.402344 0-15 6.597656-15 15 0 8.699219-36.898438 30-105 30s-105-21.300781-105-30c0-8.402344-6.597656-15-15-15s-15 6.597656-15 15v60c0 39.300781 67.800781 60 135 60s135-20.699219 135-60v-60c0-8.402344-6.597656-15-15-15zm0 0" fill="#fdbf00"/><path d="m270 121v60c0 39.300781-67.800781 60-135 60s-135-20.699219-135-60v-60h30c0 8.699219 36.898438 30 105 30s105-21.300781 105-30zm0 0" fill="#ffd400"/><path d="m270 181.34375v59.65625c0 39.300781-67.800781 60-135 60v-61.167969c0-15.535156 11.785156-28.625 27.257812-30.035156 50.632813-4.625 77.742188-21.339844 77.742188-28.796875 0-8.554688 6.847656-15.242188 15.46875-14.992188 8.15625.234376 14.53125 7.175782 14.53125 15.335938zm0 0" fill="#ff7816"/><path d="m270 121v60c0 39.300781-67.800781 60-135 60v-90c68.101562 0 105-21.300781 105-30zm0 0" fill="#ff9f00"/><path d="m270 61v60c0 39.300781-67.800781 60-135 60s-135-20.699219-135-60v-60h30c0 8.699219 36.898438 30 105 30s105-21.300781 105-30zm0 0" fill="#fdbf00"/><path d="m270 61v60c0 39.300781-67.800781 60-135 60v-61.167969c0-15.535156 11.785156-28.625 27.257812-30.035156 50.632813-4.625 77.742188-21.339844 77.742188-28.796875zm0 0" fill="#ff7816"/><path d="m135 0c-67.5 0-135 21.398438-135 61 0 39.300781 67.800781 60 135 60s135-20.699219 135-60c0-39.601562-67.5-61-135-61zm0 0" fill="#ffe470"/><path d="m270 61c0 39.300781-67.800781 60-135 60v-121c67.5 0 135 21.398438 135 61zm0 0" fill="#ffd400"/><path d="m315 242c-74.398438 0-135 60.597656-135 135 0 74.398438 60.601562 135 135 135s135-60.601562 135-135c0-74.402344-60.601562-135-135-135zm0 0" fill="#ffe470"/><path d="m450 377c0 74.398438-60.601562 135-135 135v-270c74.398438 0 135 60.597656 135 135zm0 0" fill="#ffd400"/><path d="m360 406c0 19.5-12.597656 36-30 42.300781v16.5c0 8.398438-6.597656 15-15 15s-15-6.601562-15-15v-16.800781c-9.902344-3.601562-18.601562-10.199219-24-19.5-4.199219-7.199219-1.800781-16.199219 5.398438-20.398438 7.203124-4.203124 16.5-1.800781 20.703124 5.398438 2.699219 4.5 7.5 7.5 12.898438 7.5 8.402344 0 15-6.601562 15-15 0-8.402344-6.597656-15-15-15-24.902344 0-45-20.101562-45-45 0-19.5 12.597656-36 30-42.300781v-17.101563c0-8.398437 6.597656-15 15-15s15 6.601563 15 15v17.402344c9.902344 3.601562 18.601562 10.199219 24 19.5 4.199219 7.199219 1.800781 16.199219-5.398438 20.402344-7.203124 4.199218-16.5 1.796875-20.703124-5.402344-2.699219-4.5-7.5-7.5-12.898438-7.5-8.402344 0-15 6.601562-15 15s6.597656 15 15 15c24.902344 0 45 20.097656 45 45zm0 0" fill="#ff9f00"/><g fill="#ff7816"><path d="m360 406c0 19.5-12.597656 36-30 42.300781v16.5c0 8.398438-6.597656 15-15 15v-58.800781c8.402344 0 15-6.601562 15-15 0-8.402344-6.597656-15-15-15v-30c24.902344 0 45 20.097656 45 45zm0 0"/><path d="m315 331v-59.402344c8.402344 0 15 6.601563 15 15v17.402344c9.902344 3.601562 18.601562 10.199219 24 19.5 4.199219 7.199219 1.800781 16.199219-5.398438 20.402344-7.203124 4.199218-16.5 1.796875-20.703124-5.402344-2.699219-4.5-7.5-7.5-12.898438-7.5zm0 0"/></g></svg>