<svg height="512pt" viewBox="0 0 512 512" width="512pt" xmlns="http://www.w3.org/2000/svg"><path d="m59.910156 301.015625c-11.773437 0-23.246094-3.414063-33.292968-10.152344-16.671876-11.175781-26.617188-29.808593-26.617188-49.863281v-15c0-8.289062 6.710938-15 15-15s15 6.710938 15 15v15c0 10.019531 4.980469 19.351562 13.328125 24.945312 5.070313 3.382813 15.675781 8.175782 29.8125 2.34375 7.601563-3.207031 16.433594.515626 19.570313 8.175782 3.148437 7.660156-.515626 16.433594-8.175782 19.570312-8.113281 3.339844-16.433594 4.980469-24.625 4.980469zm0 0" fill="#ff9f00"/><path d="m497 241h-34c-7.199219-14.402344-16.5-27.300781-27.601562-39l15.300781-62.402344c.902343-4.5 0-9.296875-3-12.898437-2.699219-3.601563-7.199219-5.699219-11.699219-5.699219h-45c-23.699219 0-45.898438 11.398438-60 30h-105c-90.902344 0-165 74.097656-165 165 0 18.597656 3 37.199219 9.300781 54.898438 9.898438 28.199218 27.597657 53.101562 50.699219 72.300781v53.800781c0 8.398438 6.597656 15 15 15h75c8.402344 0 15-6.601562 15-15v-16h90v16c0 8.398438 6.597656 15 15 15h75c8.402344 0 15-6.601562 15-15v-53.5l6-5.398438c16.199219-14.703124 29.097656-32.402343 38.398438-52.203124l40.300781-27.597657c3.898437-3 6.300781-7.5 6.300781-12.300781v-90c0-8.402344-6.597656-15-15-15zm0 0" fill="#ff9f00"/><path d="m512 256v90c0 4.800781-2.402344 9.300781-6.300781 12.300781l-40.300781 27.597657c-9.300782 19.800781-22.199219 37.5-38.398438 52.203124l-6 5.398438v53.5c0 8.398438-6.597656 15-15 15h-75c-8.402344 0-15-6.601562-15-15v-16h-60v-330h75c14.097656-18.601562 36.300781-30 60-30h45c4.5 0 9 2.101562 11.699219 5.699219 3 3.601562 3.902343 8.398437 3 12.902343l-15.300781 62.398438c11.101562 11.699219 20.402343 24.597656 27.601562 39h34c8.402344 0 15 6.597656 15 15zm0 0" fill="#ff7816"/><path d="m391 271c0 8.285156-6.714844 15-15 15s-15-6.714844-15-15 6.714844-15 15-15 15 6.714844 15 15zm0 0" fill="#293939"/><path d="m256 0c-33 0-60 27-60 60s27 60 60 60 60-27 60-60-27-60-60-60zm0 0" fill="#ffe470"/><path d="m316 226c0 8.398438-6.597656 15-15 15h-90c-8.402344 0-15-6.601562-15-15 0-8.402344 6.597656-15 15-15h90c8.402344 0 15 6.597656 15 15zm0 0" fill="#3e5959"/><path d="m256 120v-120c33 0 60 27 60 60s-27 60-60 60zm0 0" fill="#ffd400"/><path d="m316 226c0 8.398438-6.597656 15-15 15h-45v-30h45c8.402344 0 15 6.597656 15 15zm0 0" fill="#293939"/></svg>