<svg height="512pt" viewBox="0 0 512 512" width="512pt" xmlns="http://www.w3.org/2000/svg"><path d="m512 225c0 124.199219-100.800781 225-225 225-62.101562 0-118.199219-25.199219-159-66s-66-96.898438-66-159c0-124.199219 100.800781-225 225-225 62.101562 0 118.199219 25.199219 159 66s66 96.898438 66 159zm0 0" fill="#979fef"/><path d="m512 225c0 124.199219-100.800781 225-225 225-62.101562 0-118.199219-25.199219-159-66l318-318c40.800781 40.800781 66 96.898438 66 159zm0 0" fill="#737ee6"/><path d="m482 225c0 107.398438-87.597656 195-195 195-53.699219 0-102.597656-21.902344-137.699219-57.300781-35.402343-35.101563-57.300781-84-57.300781-137.699219 0-107.402344 87.597656-195 195-195 53.699219 0 102.597656 21.898438 137.699219 57.300781 35.402343 35.097657 57.300781 84 57.300781 137.699219zm0 0" fill="#f2f2fc"/><path d="m482 225c0 107.398438-87.597656 195-195 195-53.699219 0-102.597656-21.902344-137.699219-57.300781l275.398438-275.398438c35.402343 35.097657 57.300781 84 57.300781 137.699219zm0 0" fill="#d8d8fc"/><path d="m287 210c-8.289062 0-15-6.710938-15-15v-60c0-8.289062 6.710938-15 15-15s15 6.710938 15 15v60c0 8.289062-6.710938 15-15 15zm0 0" fill="#61729b"/><path d="m377 240h-60c-8.289062 0-15-6.710938-15-15s6.710938-15 15-15h60c8.289062 0 15 6.710938 15 15s-6.710938 15-15 15zm0 0" fill="#47568c"/><path d="m287 90c-8.289062 0-15-6.710938-15-15v-60c0-8.289062 6.710938-15 15-15s15 6.710938 15 15v60c0 8.289062-6.710938 15-15 15zm0 0" fill="#979fef"/><path d="m170.324219 129.535156-42.421875-42.421875c-5.859375-5.859375-5.859375-15.351562 0-21.210937s15.351562-5.859375 21.210937 0l42.421875 42.421875c5.859375 5.859375 5.859375 15.351562 0 21.210937s-15.351562 5.859375-21.210937 0zm0 0" fill="#979fef"/><path d="m424.886719 384.097656-42.421875-42.421875c-5.859375-5.859375-5.859375-15.351562 0-21.210937s15.351562-5.859375 21.210937 0l42.421875 42.421875c5.859375 5.859375 5.859375 15.351562 0 21.210937s-15.351562 5.859375-21.210937 0zm0 0" fill="#737ee6"/><path d="m446 87-42.300781 42.601562c-6 5.699219-15.300781 5.699219-21.300781 0-5.699219-6-5.699219-15.300781 0-21.300781l42.601562-42.300781c5.699219-6 15.300781-6 21 0 6 5.699219 6 15.300781 0 21zm0 0" fill="#979fef"/><path d="m497 240h-60c-8.289062 0-15-6.710938-15-15s6.710938-15 15-15h60c8.289062 0 15 6.710938 15 15s-6.710938 15-15 15zm0 0" fill="#737ee6"/><path d="m330 432.800781v49.199219c0 16.5-13.5 30-30 30-82.800781 0-157.800781-33.601562-212.101562-87.898438-54.296876-54.300781-87.898438-129.300781-87.898438-212.101562 0-16.5 13.5-30 30-30h49.199219c6.300781 0 12.300781 4.199219 14.101562 10.199219 1.5 3.898437 24.296875 72.601562 24.296875 72.898437 1.5 4.203125.902344 9.300782-1.796875 12.902344-1.800781 3-26.101562 39.300781-25.800781 39.300781 9.601562 23.699219 24 45 41.699219 63 18 17.699219 39.601562 32.097657 63.300781 41.699219 3-2.101562 39.300781-26.101562 39.300781-25.800781 3.597657-2.699219 8.398438-3.300781 12.597657-1.800781 3.601562 1.199218 66.902343 22.203124 72.902343 24.300781 6 1.800781 10.199219 7.800781 10.199219 14.101562zm0 0" fill="#ff641a"/><path d="m330 432.800781v49.199219c0 16.5-13.5 30-30 30-82.800781 0-157.800781-33.601562-212.101562-87.898438l43.800781-43.800781c18 17.699219 39.601562 32.097657 63.300781 41.699219 3-2.101562 39.300781-26.101562 39.300781-25.800781 3.597657-2.699219 8.398438-3.300781 12.597657-1.800781 3.601562 1.199218 66.902343 22.203124 72.902343 24.300781 6 1.800781 10.199219 7.800781 10.199219 14.101562zm0 0" fill="#f03800"/><path d="m446 87-42.300781 42.601562c-6 5.699219-15.300781 5.699219-21.300781 0l63.601562-63.601562c6 5.699219 6 15.300781 0 21zm0 0" fill="#737ee6"/><path d="m318.800781 193.199219c-8.101562-8.101563-19.199219-13.199219-31.800781-13.199219-24.902344 0-45 20.097656-45 45 0 12.597656 5.097656 23.699219 13.199219 31.800781 8.101562 8.097657 19.199219 13.199219 31.800781 13.199219 24.902344 0 45-20.101562 45-45 0-12.601562-5.097656-23.699219-13.199219-31.800781zm0 0" fill="#61729b"/><path d="m318.800781 193.199219c8.101563 8.101562 13.199219 19.199219 13.199219 31.800781 0 24.898438-20.097656 45-45 45-12.597656 0-23.699219-5.101562-31.800781-13.199219zm0 0" fill="#47568c"/></svg>