<svg height="511pt" viewBox="0 1 511 511.99934" width="511pt" xmlns="http://www.w3.org/2000/svg"><path d="m493.945312 186.527344c-.054687-11.265625 5.101563-22.921875 14.140626-31.984375 2.84375-2.847657 4.417968-6.722657 4.378906-10.746094-.042969-4.023437-1.699219-7.863281-4.601563-10.652344l-128.578125-128.546875c-2.792968-2.902344-6.632812-4.5585935-10.660156-4.597656-4.023438-.0273438-7.898438 1.542969-10.746094 4.390625-8.5 8.5-19.796875 13.179687-31.8125 13.179687-12.019531 0-23.316406-4.679687-31.8125-13.179687-2.8125-2.808594-6.628906-4.390625-10.605468-4.390625-3.980469 0-7.792969 1.582031-10.605469 4.394531l-268.148438 268.148438c-2.8125 2.8125-4.394531 6.628906-4.394531 10.605469 0 3.976562 1.578125 7.792968 4.394531 10.605468 8.496094 8.496094 13.175781 19.792969 13.175781 31.808594 0 12.019531-4.679687 23.316406-13.175781 31.8125-2.851562 2.847656-4.433593 6.722656-4.394531 10.75s1.695312 7.867188 4.597656 10.660156l128.550782 128.59375c2.894531 2.933594 6.847656 4.554688 10.980468 4.46875 4.117188-.085937 8.019532-1.855468 10.792969-4.902344 8.109375-8.914062 19.253906-13.820312 31.394531-13.820312h.125c11.289063.03125 22.925782 5.28125 31.917969 14.40625 2.804687 2.84375 6.632813 4.453125 10.628906 4.46875h.050781c3.980469 0 7.792969-1.582031 10.605469-4.394531l267.847657-267.929688c2.824218-2.824219 4.40625-6.664062 4.390624-10.664062-.015624-3.996094-1.628906-7.820313-4.476562-10.625-8.820312-8.679688-13.910156-20.292969-13.960938-31.859375zm-40.480468 65.269531-32.816406-32.8125c-5.855469-5.859375-15.351563-5.859375-21.207032 0-5.855468 5.855469-5.855468 15.351563 0 21.207031l32.816406 32.816406-203.632812 203.699219c-12.539062-8.699219-27.113281-13.535156-41.601562-13.574219-.070313 0-.140626 0-.210938 0-15.289062 0-29.667969 4.582032-41.726562 13.125l-109.289063-109.550781c7.984375-12.117187 12.265625-26.300781 12.265625-41.140625 0-14.933594-4.335938-29.203125-12.410156-41.363281l203.898437-203.902344 32.640625 32.640625c5.855469 5.855469 15.351563 5.855469 21.207032 0 5.855468-5.859375 5.855468-15.351562 0-21.210937l-32.640626-32.636719 23.945313-23.941406c12.160156 8.074218 26.429687 12.410156 41.363281 12.410156 14.84375 0 29.023438-4.28125 41.140625-12.265625l109.886719 109.867187c-8.527344 12.558594-13.207031 27.09375-13.144531 41.5.070312 14.59375 4.761719 29.105469 13.1875 41.453126zm0 0"/><path d="m335.820312 134.152344c-5.859374-5.855469-15.351562-5.855469-21.210937 0-5.855469 5.855468-5.855469 15.351562 0 21.207031l42.414063 42.414063c2.925781 2.925781 6.765624 4.390624 10.601562 4.390624 3.839844 0 7.675781-1.460937 10.605469-4.390624 5.855469-5.855469 5.855469-15.351563 0-21.207032zm0 0"/><path d="m278.832031 212.042969-11.984375 11.984375c-16.621094-7.957032-37.289062-5.128906-51.214844 8.800781-17.542968 17.539063-17.542968 46.082031 0 63.621094 5.859376 5.863281 5.859376 15.347656 0 21.210937-5.847656 5.84375-15.359374 5.847656-21.210937 0-3.773437-3.777344-5.261719-9.332031-3.882813-14.503906 2.140626-8-2.617187-16.21875-10.617187-18.355469-7.996094-2.132812-16.222656 2.617188-18.359375 10.617188-2.796875 10.472656-1.644531 21.472656 2.890625 31.003906l-11.597656 11.597656c-5.855469 5.855469-5.855469 15.351563 0 21.207031 2.929687 2.929688 6.765625 4.394532 10.605469 4.394532 3.835937 0 7.675781-1.464844 10.601562-4.394532l11.578125-11.578124c16.820313 8.015624 37.441406 4.976562 51.199219-8.78125 17.582031-17.582032 17.585937-46.039063 0-63.625-5.847656-5.847657-5.847656-15.359376 0-21.207032 5.859375-5.859375 15.347656-5.863281 21.207031 0 3.777344 3.773438 5.265625 9.332032 3.882813 14.503906-2.136719 8 2.617187 16.21875 10.621093 18.355469 8 2.132813 16.222657-2.617187 18.355469-10.621093 2.796875-10.472657 1.644531-21.472657-2.886719-31l12.019531-12.023438c5.855469-5.855469 5.855469-15.351562 0-21.207031-5.855468-5.859375-15.351562-5.859375-21.207031 0zm0 0"/></svg>